<svg xmlns="http://www.w3.org/2000/svg" height="20" viewBox="0 -960 960 960" width="20"><path d="M480-445.27 310.384-275.654q-8.307 8.307-16.769 7.75-8.461-.558-16.961-9.058-8.192-8.5-8.038-17.115.154-8.615 8.346-16.807L445.27-480 275.962-650.116q-7.808-7.807-7.5-16.615.308-8.807 8.5-17.307 8.192-8.5 16.961-8.75 8.769-.25 17.461 8.25L480-514.73l169.808-169.808q8.115-8.115 17.077-8.058 8.961.058 17.653 8.558 8 8.5 7.846 17.115-.154 8.615-8.346 16.807L514.73-480l169.308 170.116q7.808 7.807 8 16.115.192 8.307-8 16.807-8.192 8.5-16.961 8.75-8.769.25-17.269-8.442L480-445.27Z"/></svg>