<svg xmlns="http://www.w3.org/2000/svg" height="20" viewBox="0 -960 960 960" width="20"><path d="M373.575-256.462h213.027q9.715 0 16.941-7.001 7.226-7.001 7.226-16.769 0-9.768-7.065-16.979-7.064-7.211-16.779-7.211H373.898q-9.936 0-17.051 7.043-7.116 7.042-7.116 16.726t6.954 16.937q6.954 7.254 16.89 7.254Zm0-142.385h213.027q9.715 0 16.941-7.001 7.226-7 7.226-16.768t-7.065-16.98q-7.064-7.211-16.779-7.211H373.898q-9.936 0-17.051 7.043-7.116 7.043-7.116 16.727 0 9.683 6.954 16.937 6.954 7.253 16.89 7.253ZM279.18-124.078q-25.078 0-42.494-17.566-17.415-17.566-17.415-42.619v-591.474q0-25.053 17.565-42.619 17.566-17.566 42.703-17.566h281.154q11.822 0 22.777 4.212 10.954 4.211 20.61 13.65l118.262 118.005q9.657 9.631 14.022 20.685 4.365 11.053 4.365 22.984v472.039q0 25.137-17.577 42.703-17.578 17.566-42.656 17.566H279.18Zm271.244-551.769v-112.115H279.539q-4.615 0-8.462 3.847-3.846 3.846-3.846 8.462v591.306q0 4.616 3.846 8.462 3.847 3.847 8.462 3.847h400.922q4.615 0 8.462-3.847 3.846-3.846 3.846-8.462v-461.27H580.655q-12.646 0-21.438-8.792-8.793-8.792-8.793-21.438ZM267.231-787.962v142.345-142.345 615.924-615.924Z"/></svg>