<svg xmlns="http://www.w3.org/2000/svg" height="20" viewBox="0 -960 960 960" width="20"><path d="m233.947-740.729 47.525 95.436q5.055 11.101 15.437 17.408 10.383 6.308 22.673 6.308 23.412 0 35.876-19.626 12.465-19.625 1.965-41.259l-29.076-58.267h70.914l47.836 95.436q5.036 11.101 15.384 17.408 10.347 6.308 22.669 6.308 23.475 0 35.913-19.626Q533.5-660.828 523-682.462l-29.076-58.267h70.914l47.836 95.436q5.036 11.101 15.383 17.408 10.348 6.308 22.67 6.308 23.475 0 35.913-19.626 12.437-19.625 1.937-41.259l-29.076-58.267h116.137q25.152 0 42.718 17.915 17.566 17.916 17.566 42.277v401.074q0 24.361-17.566 42.277-17.566 17.915-42.619 17.915H184.263q-24.353 0-42.269-17.915-17.916-17.916-17.916-42.272v-401.049q0-25.761 17.42-42.992 17.419-17.23 44.449-17.23h48Zm-61.909 167.112v294.078q0 5.385 3.462 8.846 3.462 3.462 8.847 3.462h591.306q5.385 0 8.847-3.462 3.462-3.461 3.462-8.846v-294.078H172.038Zm0 0V-267.231-573.617Z"/></svg>