<svg xmlns="http://www.w3.org/2000/svg" height="20" viewBox="0 -960 960 960" width="20"><path d="M280.064-220.078q-25.217 0-42.601-17.535-17.385-17.534-17.385-42.734v-34.461q0-9.954 7.001-17.015 7.001-7.062 16.865-7.062 9.672 0 16.883 7.062 7.211 7.061 7.211 17.015v34.461q0 4.616 3.847 8.462 3.846 3.847 8.462 3.847h399.306q4.616 0 8.462-3.847 3.847-3.846 3.847-8.462v-34.461q0-9.954 7-17.015 7.001-7.062 16.865-7.062 9.672 0 16.883 7.062 7.212 7.061 7.212 17.015v34.461q0 25.2-17.547 42.734-17.546 17.535-42.762 17.535H280.064Zm176.052-477.693-82.423 82.424q-7.115 7.115-16.423 7.653-9.307.539-17.093-6.961-7.714-7.308-7.368-16.865.347-9.557 7.846-17.057L459-766.922q4.516-4.115 9.796-6.673 5.281-2.558 11.404-2.558t11.404 2.558q5.28 2.558 9.588 6.673l118.345 118.345q6.923 7.115 7.461 16.365.539 9.249-6.983 16.557-7.978 7.5-17.189 7.057-9.211-.442-16.519-7.749l-82.231-81.424v325.194q0 9.954-7.001 17.015-7 7.061-16.864 7.061-9.865 0-16.98-7.061t-7.115-17.015v-325.194Z"/></svg>