<svg id="Layer_1" data-name="Layer 1" xmlns="http://www.w3.org/2000/svg" viewBox="0 0 529.65 447.31"><defs><style>.cls-1{}</style></defs><title>logo</title><path class="cls-1" d="M296.73,348.15c1.65-65.45,21.64-125.67,74.41-171.74,22.49-19.64,49-31.62,78.06-38.35,5.36-1.25,9.19-1.82,9.95,5.29,9.05,84.46-7.82,160.09-75.63,217.6-21.18,18-46.49,28.39-73.54,35-7.91,1.94-9.52-.08-10.75-7.05C297,376.23,297.64,363.47,296.73,348.15Z" transform="translate(-27.39 -71)"/><path class="cls-1" d="M278.67,397.91c-39.78-4.13-72.37-21.82-97.84-51.71C131.21,288,115.42,220,124.78,145.06c1.06-8.5,4-10.8,12.82-9.33,33.1,5.54,61.15,20.29,85,43.64,3.85,3.77,4.36,7.89,3.72,12.85-9.52,74.3,2.77,143,51.86,202.33C278.67,395.14,278.46,396.32,278.67,397.91Z" transform="translate(-27.39 -71)"/><path class="cls-1" d="M290.64,394.22c-9.79-5.7-14.61-15.05-20.19-23.52C214.69,286,219.71,159.21,281.74,81.81c11.56-14.42,11.5-14.38,22.64-.08,21.88,28.1,35.47,60,43.38,94.49,1.3,5.7.19,9.66-3.52,14.12-48.41,58.07-62.85,125.38-53.62,199A44.36,44.36,0,0,1,290.64,394.22Z" transform="translate(-27.39 -71)"/><path class="cls-1" d="M29.48,501a2,2,0,0,1-1.54-.59,2.09,2.09,0,0,1-.55-1.5v-59.4a2.25,2.25,0,0,1,.55-1.59,2,2,0,0,1,1.54-.59H67.05a2,2,0,0,1,1.54.59,2.25,2.25,0,0,1,.55,1.59V443a1.91,1.91,0,0,1-2.09,2.09H36.12V465H65.05a2,2,0,0,1,1.54.59,2.25,2.25,0,0,1,.55,1.59v3.37a2.09,2.09,0,0,1-.55,1.5,2,2,0,0,1-1.54.59H36.12V493.3H67.78a1.91,1.91,0,0,1,2.09,2.09v3.55a2.09,2.09,0,0,1-.55,1.5,2,2,0,0,1-1.54.59Z" transform="translate(-27.39 -71)"/><path class="cls-1" d="M83.42,501a2,2,0,0,1-1.5-.59,2,2,0,0,1-.59-1.5V455.82a2,2,0,0,1,2.09-2.09h4.09a2,2,0,0,1,2.09,2.09V459a15.68,15.68,0,0,1,5.28-4.51,16.17,16.17,0,0,1,7.64-1.68q10.28-.09,14.56,8.37a15.38,15.38,0,0,1,6.09-6.09,18.06,18.06,0,0,1,9.1-2.28,17.13,17.13,0,0,1,8.59,2.19,15.16,15.16,0,0,1,6.1,6.59,24.49,24.49,0,0,1,2.22,11v26.29a2,2,0,0,1-.59,1.5,2,2,0,0,1-1.5.59h-4.27a2,2,0,0,1-1.5-.59,2,2,0,0,1-.6-1.5V473.47a18.15,18.15,0,0,0-1.45-8,8.59,8.59,0,0,0-3.91-4.1,12.21,12.21,0,0,0-5.37-1.18,11,11,0,0,0-4.82,1.18,9.27,9.27,0,0,0-4,4.1,16.82,16.82,0,0,0-1.59,8v25.47a2,2,0,0,1-.59,1.5,2.07,2.07,0,0,1-1.5.59h-4.28a2.07,2.07,0,0,1-1.5-.59,2,2,0,0,1-.59-1.5V473.47a17.24,17.24,0,0,0-1.54-8,9.1,9.1,0,0,0-4-4.1,11.73,11.73,0,0,0-5.18-1.18,11,11,0,0,0-4.82,1.18,9.27,9.27,0,0,0-4,4.1,16.56,16.56,0,0,0-1.59,7.91v25.56a2,2,0,0,1-.59,1.5,2.07,2.07,0,0,1-1.5.59Z" transform="translate(-27.39 -71)"/><path class="cls-1" d="M164.37,518.31a2,2,0,0,1-2.09-2.09v-60.4a2,2,0,0,1,2.09-2.09h4.19a2,2,0,0,1,2.09,2.09v4a17.45,17.45,0,0,1,5.82-5,18.76,18.76,0,0,1,9.1-2,19.9,19.9,0,0,1,8.68,1.73,16.24,16.24,0,0,1,5.92,4.73,21.6,21.6,0,0,1,3.5,6.82,29.62,29.62,0,0,1,1.27,8.19q.09,1.45.09,3.09t-.09,3.09a29.8,29.8,0,0,1-1.27,8.15,21,21,0,0,1-3.5,6.82,17,17,0,0,1-5.92,4.73,19.47,19.47,0,0,1-8.68,1.77A18.38,18.38,0,0,1,176.7,500a18.71,18.71,0,0,1-5.87-4.87v21.1a2.12,2.12,0,0,1-.54,1.5,2,2,0,0,1-1.55.59Zm19.29-23.74a12,12,0,0,0,7.41-2,11.46,11.46,0,0,0,3.87-5.37A24.86,24.86,0,0,0,196.3,480q.09-2.64,0-5.28a25,25,0,0,0-1.36-7.14,11.38,11.38,0,0,0-3.87-5.36,11.93,11.93,0,0,0-7.41-2.05,11.71,11.71,0,0,0-7.23,2.09,12.49,12.49,0,0,0-4.1,5.32,20.26,20.26,0,0,0-1.5,6.6q-.09,1.46-.09,3.45c0,1.34,0,2.52.09,3.55a16.09,16.09,0,0,0,1.5,6.28,12.5,12.5,0,0,0,4.23,5.09A11.93,11.93,0,0,0,183.66,494.57Z" transform="translate(-27.39 -71)"/><path class="cls-1" d="M235.78,501.94a23.12,23.12,0,0,1-11.56-2.64,17.79,17.79,0,0,1-7.09-7.32,25.14,25.14,0,0,1-2.73-10.69c-.06-1-.09-2.35-.09-4s0-2.9.09-3.87a24.58,24.58,0,0,1,2.78-10.73,18,18,0,0,1,7.14-7.28,26.19,26.19,0,0,1,22.92,0,18.12,18.12,0,0,1,7.14,7.28,24.71,24.71,0,0,1,2.77,10.73q.09,1.45.09,3.87c0,1.6,0,2.92-.09,4A25.14,25.14,0,0,1,254.42,492a17.73,17.73,0,0,1-7.09,7.32A23.08,23.08,0,0,1,235.78,501.94Zm0-7a11.72,11.72,0,0,0,9-3.6q3.36-3.58,3.64-10.5c.06-.91.09-2.06.09-3.46s0-2.55-.09-3.46q-.27-6.9-3.64-10.5a11.71,11.71,0,0,0-9-3.59,11.87,11.87,0,0,0-9.05,3.59q-3.42,3.6-3.6,10.5c-.06.91-.09,2.07-.09,3.46s0,2.55.09,3.46q.18,6.92,3.6,10.5A11.88,11.88,0,0,0,235.78,494.94Z" transform="translate(-27.39 -71)"/><path class="cls-1" d="M270.7,501a2.07,2.07,0,0,1-1.5-.59,2,2,0,0,1-.59-1.5v-43a2.2,2.2,0,0,1,.59-1.55,2,2,0,0,1,1.5-.64h4.19a2.11,2.11,0,0,1,1.54.64,2.08,2.08,0,0,1,.64,1.55v4a11.55,11.55,0,0,1,5-4.64,17.38,17.38,0,0,1,7.64-1.55h3.64a1.91,1.91,0,0,1,1.46.59,2.16,2.16,0,0,1,.54,1.5v3.73a1.86,1.86,0,0,1-2,2H287.9a10.37,10.37,0,0,0-7.74,2.87,10.6,10.6,0,0,0-2.82,7.78v26.74a2,2,0,0,1-.63,1.5,2.22,2.22,0,0,1-1.55.59Z" transform="translate(-27.39 -71)"/><path class="cls-1" d="M304.54,444.91a2,2,0,0,1-2.09-2.09v-4.91a2,2,0,0,1,2.09-2.1h5.73a2,2,0,0,1,2.09,2.1v4.91a2,2,0,0,1-2.09,2.09Zm.73,56.12a2,2,0,0,1-1.5-.59,2,2,0,0,1-.59-1.5V455.82a2,2,0,0,1,2.09-2.09h4.36a1.91,1.91,0,0,1,1.46.59,2.16,2.16,0,0,1,.54,1.5v43.12a2.12,2.12,0,0,1-.54,1.5,1.91,1.91,0,0,1-1.46.59Z" transform="translate(-27.39 -71)"/><path class="cls-1" d="M342.83,501.94a17.92,17.92,0,0,1-9.87-2.59,16.44,16.44,0,0,1-6.14-7.23,25.75,25.75,0,0,1-2.09-10.65V455.82a2,2,0,0,1,2.09-2.09h4.55a2,2,0,0,1,2.09,2.09V481q0,13.56,11.83,13.55a11.87,11.87,0,0,0,9-3.59c2.27-2.4,3.41-5.71,3.41-10v-25.2a2,2,0,0,1,2.09-2.09h4.46a2,2,0,0,1,1.55.59,2.16,2.16,0,0,1,.54,1.5v43.12a2.12,2.12,0,0,1-.54,1.5,2,2,0,0,1-1.55.59h-4.18a2,2,0,0,1-1.5-.59,2,2,0,0,1-.6-1.5v-4a18.77,18.77,0,0,1-5.95,5.09A19.35,19.35,0,0,1,342.83,501.94Z" transform="translate(-27.39 -71)"/><path class="cls-1" d="M382,501a2,2,0,0,1-1.5-.59,2,2,0,0,1-.6-1.5V455.82a2,2,0,0,1,2.1-2.09h4.09a2,2,0,0,1,2.09,2.09V459a15.58,15.58,0,0,1,5.28-4.51,16.17,16.17,0,0,1,7.64-1.68q10.28-.09,14.55,8.37a15.4,15.4,0,0,1,6.1-6.09,18,18,0,0,1,9.09-2.28,17.16,17.16,0,0,1,8.6,2.19,15.2,15.2,0,0,1,6.09,6.59,24.35,24.35,0,0,1,2.23,11v26.29a2,2,0,0,1-.59,1.5,2.07,2.07,0,0,1-1.5.59h-4.28a2.07,2.07,0,0,1-1.5-.59,2,2,0,0,1-.59-1.5V473.47a18.3,18.3,0,0,0-1.45-8,8.61,8.61,0,0,0-3.92-4.1,12.13,12.13,0,0,0-5.36-1.18,11,11,0,0,0-4.82,1.18,9.27,9.27,0,0,0-4.05,4.1,16.82,16.82,0,0,0-1.59,8v25.47a2,2,0,0,1-.59,1.5,2.07,2.07,0,0,1-1.51.59h-4.27a2,2,0,0,1-1.5-.59,2,2,0,0,1-.59-1.5V473.47a17.23,17.23,0,0,0-1.55-8,9,9,0,0,0-4-4.1,11.81,11.81,0,0,0-5.19-1.18,11.06,11.06,0,0,0-4.82,1.18,9.3,9.3,0,0,0-4,4.1,16.43,16.43,0,0,0-1.6,7.91v25.56a2,2,0,0,1-.59,1.5,2,2,0,0,1-1.5.59Z" transform="translate(-27.39 -71)"/><path class="cls-1" d="M508.29,501.94a29.3,29.3,0,0,1-13.15-2.73,18.85,18.85,0,0,1-8.46-8.32q-3-5.59-2.95-14.42V439.54a2.29,2.29,0,0,1,.54-1.59,2,2,0,0,1,1.55-.59h4.64a2.15,2.15,0,0,1,1.59.59,2.18,2.18,0,0,1,.59,1.59v37.11q0,8.93,4.19,13.19t11.46,4.28q7.19,0,11.41-4.28t4.23-13.19V439.54a2.18,2.18,0,0,1,.59-1.59,2.07,2.07,0,0,1,1.5-.59h4.73a2,2,0,0,1,1.5.59,2.15,2.15,0,0,1,.6,1.59v36.93q0,8.82-3,14.42a18.9,18.9,0,0,1-8.41,8.32A29.24,29.24,0,0,1,508.29,501.94Z" transform="translate(-27.39 -71)"/><path class="cls-1" d="M550.13,501a2,2,0,0,1-1.55-.59,2.12,2.12,0,0,1-.54-1.5V439.45a2.16,2.16,0,0,1,.54-1.5,2,2,0,0,1,1.55-.59H555a2,2,0,0,1,2.09,2.09v59.49a2,2,0,0,1-.59,1.5,2.07,2.07,0,0,1-1.5.59Z" transform="translate(-27.39 -71)"/></svg>