<?xml version="1.0" encoding="utf-8"?>
<svg viewBox="0 0 351.9 332.896" xmlns="http://www.w3.org/2000/svg">
  <g transform="matrix(0.9999999999999999, 0, 0, 0.9999999999999999, -116.8097492697759, -68.12602436918085)">
    <path class="cls-1" d="M296.73,348.15c1.65-65.45,21.64-125.67,74.41-171.74,22.49-19.64,49-31.62,78.06-38.35,5.36-1.25,9.19-1.82,9.95,5.29,9.05,84.46-7.82,160.09-75.63,217.6-21.18,18-46.49,28.39-73.54,35-7.91,1.94-9.52-.08-10.75-7.05C297,376.23,297.64,363.47,296.73,348.15Z"/>
    <path class="cls-1" d="M278.67,397.91c-39.78-4.13-72.37-21.82-97.84-51.71C131.21,288,115.42,220,124.78,145.06c1.06-8.5,4-10.8,12.82-9.33,33.1,5.54,61.15,20.29,85,43.64,3.85,3.77,4.36,7.89,3.72,12.85-9.52,74.3,2.77,143,51.86,202.33C278.67,395.14,278.46,396.32,278.67,397.91Z"/>
    <path class="cls-1" d="M290.64,394.22c-9.79-5.7-14.61-15.05-20.19-23.52C214.69,286,219.71,159.21,281.74,81.81c11.56-14.42,11.5-14.38,22.64-.08,21.88,28.1,35.47,60,43.38,94.49,1.3,5.7.19,9.66-3.52,14.12-48.41,58.07-62.85,125.38-53.62,199A44.36,44.36,0,0,1,290.64,394.22Z"/>
  </g>
</svg>